<?xml version="1.0" encoding="UTF-8"?>
<svg width="80px" height="72px" viewBox="0 0 80 72" version="1.1" xmlns="http://www.w3.org/2000/svg" xmlns:xlink="http://www.w3.org/1999/xlink">
    <!-- Generator: Sketch 52.5 (67469) - http://www.bohemiancoding.com/sketch -->
    <title>noun-business-2126908</title>
    <desc>Created with Sketch.</desc>
    <g id="Devices" stroke="none" stroke-width="1" fill="none" fill-rule="evenodd">
        <g id="Artboard" transform="translate(0.000000, -16.000000)" fill="#000000">
            <g id="noun-business-2126908" transform="translate(0.000000, 16.000000)">
                <path d="M18.3873039,68 L12.6126961,68 C12.2757202,68 12,67.7086994 12,67.3526819 L12,65.4916608 C12,65.2327335 12.1378573,65.0061796 12.3522967,64.9090744 C14.021911,64.0837475 15.0940941,62.3036745 15.0940941,60.3617201 C15.0940941,58.4197657 14.021883,56.6396779 12.3522967,55.8143657 C12.1378601,55.7010858 12,55.47452 12,55.2317794 L12,39.6473181 C12,39.2913006 12.2757202,39 12.6126961,39 L18.3873039,39 C18.7242798,39 19,39.2913006 19,39.6473181 L19,67.3525339 C19,67.7085515 18.7242798,67.999852 18.3873039,67.999852 L18.3873039,68 Z M13.2253921,66.7053637 L17.7746079,66.7053637 L17.7746079,40.2947842 L13.2253921,40.2947842 L13.2253921,54.8271131 C15.1246799,55.9275539 16.3348071,58.0475763 16.3348071,60.3616461 C16.3348071,62.6757159 15.1247359,64.7958123 13.2253921,65.8961791 L13.2253921,66.7053637 Z" id="Shape" fill-rule="nonzero"></path>
                <path d="M28.3873039,69 L22.6126961,69 C22.2757202,69 22,68.6999973 22,68.3333444 L22,46.6666556 C22,46.3000027 22.2757202,46 22.6126961,46 L28.3873039,46 C28.7242798,46 29,46.3000027 29,46.6666556 L29,68.3333444 C29,68.6999973 28.7242798,69 28.3873039,69 Z M23.2253921,67.6666888 L27.7746079,67.6666888 L27.7746079,47.3333112 L23.2253921,47.3333112 L23.2253921,67.6666888 Z" id="Shape" fill-rule="nonzero"></path>
                <path d="M39.3873039,69 L33.6126961,69 C33.2757202,69 33,68.7056611 33,68.3459302 L33,24.6540698 C33,24.2943389 33.2757202,24 33.6126961,24 L39.3873039,24 C39.7242798,24 40,24.2943389 40,24.6540698 L40,68.3459302 C40,68.7056611 39.7396007,69 39.3873039,69 Z M34.2253921,67.6918605 L38.7746079,67.6918605 L38.7746079,25.3081395 L34.2253921,25.3081395 L34.2253921,67.6918605 Z" id="Shape" fill-rule="nonzero"></path>
                <path d="M49.3873039,68 L43.6126961,68 C43.2757202,68 43,67.708698 43,67.3526786 L43,39.6473214 C43,39.291302 43.2757202,39 43.6126961,39 L49.3873039,39 C49.7242798,39 50,39.291302 50,39.6473214 L50,67.3526786 C50,67.708698 49.7242798,68 49.3873039,68 Z M44.2253921,66.7053571 L48.7746079,66.7053571 L48.7746079,40.2946429 L44.2253921,40.2946429 L44.2253921,66.7053571 Z" id="Shape" fill-rule="nonzero"></path>
                <path d="M60.3873039,69 L54.6126961,69 C54.2757202,69 54,68.702188 54,68.3382124 L54,35.6617876 C54,35.297812 54.2757202,35 54.6126961,35 L60.3873039,35 C60.7242798,35 61,35.297812 61,35.6617876 L61,68.3382124 C61,68.702188 60.7242798,69 60.3873039,69 Z M55.2253921,67.6764248 L59.7746079,67.6764248 L59.7746079,36.3235752 L55.2253921,36.3235752 L55.2253921,67.6764248 Z" id="Shape" fill-rule="nonzero"></path>
                <path d="M70.3873039,68.9992181 L64.6126961,68.9992181 C64.2757202,68.9992181 64,68.7031799 64,68.3413722 L64,18.6578459 C64,18.2960382 64.2757202,18 64.6126961,18 L70.3873039,18 C70.7242798,18 71,18.2960382 71,18.6578459 L71,25.4994428 C71,25.7461312 70.8774608,25.9599349 70.6783311,26.0750541 C69.1465209,26.9631385 68.196877,28.6900478 68.196877,30.5647957 C68.196877,32.4395436 69.1465489,34.1500932 70.6783311,35.0381475 C70.8774608,35.1532698 71,35.3835204 71,35.6137589 L71,68.3421541 C71,68.7039618 70.7396007,69 70.3873039,69 L70.3873039,68.9992181 Z M65.2253921,67.6835264 L69.7746079,67.6835264 L69.7746079,35.9911444 C68.0283891,34.8234718 66.9714709,32.7841646 66.9714709,30.5638785 C66.9714709,28.3435923 68.043682,26.2878052 69.7746079,25.1202228 L69.7746079,19.3147895 L65.2253921,19.3147895 L65.2253921,67.6835264 Z" id="Shape" fill-rule="nonzero"></path>
                <path d="M15,37 C11.6837615,37 9,34.0832591 9,30.5 C9,26.9167409 11.6992737,24 15,24 C18.3162385,24 21,26.9167409 21,30.5 C21,34.0832591 18.3162385,37 15,37 Z M15,25.3499508 C12.3624932,25.3499508 10.2339295,27.666612 10.2339295,30.5166096 C10.2339295,33.3666073 12.3778645,35.6832685 15,35.6832685 C17.6375068,35.6832685 19.7660705,33.3666073 19.7660705,30.5166096 C19.7660705,27.666612 17.6375068,25.3499508 15,25.3499508 Z" id="Shape" fill-rule="nonzero"></path>
                <path d="M15.9922082,36 C14.0688577,36 12.2861879,35.0473348 11.1290037,33.3927926 C10.9569988,33.1588132 10.9569988,32.8245308 11.1290037,32.5905514 C12.2861593,30.935948 14.0687148,30 15.9922082,30 C17.9311423,30 19.7138121,30.9526652 20.8709963,32.5905514 C21.0430012,32.8245308 21.0430012,33.1588132 20.8709963,33.3927926 C19.7138407,35.0473959 17.9312852,36 15.9922082,36 Z M12.4425951,32.9915192 C13.3651828,34.0611741 14.6317233,34.6629314 16.0079347,34.6629314 C17.3841461,34.6629314 18.650558,34.0612505 19.5732744,32.9915192 C18.6663131,31.9218643 17.3841461,31.320107 16.0079347,31.320107 C14.6318663,31.3368211 13.349585,31.938505 12.4425951,32.9915192 Z" id="Shape" fill-rule="nonzero"></path>
                <path d="M15.4999067,30 C14.1148583,30 13,28.8682821 13,27.5 C13,26.1148999 14.1147965,25 15.4999067,25 C16.8850168,25 17.9998133,26.1148382 17.9998133,27.5 C18.0167048,28.8851001 16.8850168,30 15.4999067,30 Z M15.4999067,26.351464 C14.8580663,26.351464 14.3513364,26.8750927 14.3513364,27.5000772 C14.3513364,28.1419416 14.8749454,28.6486904 15.4999067,28.6486904 C16.1248679,28.6486904 16.648477,28.1250618 16.648477,27.5000772 C16.6653685,26.8582129 16.1417625,26.351464 15.4999067,26.351464 Z" id="Shape" fill-rule="nonzero"></path>
                <path d="M36.5,20 C32.9165885,20 30,17.0832591 30,13.5 C30,9.9167409 32.9167409,7 36.5,7 C40.0832591,7 43,9.9167409 43,13.5 C43,17.0832591 40.0832591,20 36.5,20 Z M36.5,8.34995077 C33.6500023,8.34995077 31.3333411,10.666612 31.3333411,13.5166096 C31.3333411,16.3666073 33.6500023,18.6832685 36.5,18.6832685 C39.3499977,18.6832685 41.6666589,16.3666073 41.6666589,13.5166096 C41.6666589,10.666612 39.333388,8.34995077 36.5,8.34995077 Z" id="Shape" fill-rule="nonzero"></path>
                <path d="M35.9922082,20 C34.0532742,20 32.2861879,19.0499721 31.1290037,17.4000102 C30.9569988,17.1666785 30.9569988,16.8333215 31.1290037,16.5999898 C32.2861593,14.949967 34.0687148,14 35.9922082,14 C37.9311423,14 39.7138121,14.9500279 40.8709963,16.5999898 C41.0430012,16.8333215 41.0430012,17.1666785 40.8709963,17.4000102 C39.7138407,19.0334231 37.8999752,20 35.9922082,20 Z M32.4268686,16.9998476 C33.3338299,18.0665414 34.6159968,18.6666328 35.9922082,18.6666328 C37.3684196,18.6666328 38.6348315,18.0666176 39.5575479,16.9998476 C38.6505866,15.9331539 37.3684196,15.3330624 35.9922082,15.3330624 C34.6161398,15.3497303 33.3338585,15.9497486 32.4268686,16.9998476 Z" id="Shape" fill-rule="nonzero"></path>
                <path d="M36.5,15 C35.1148999,15 34,13.8851618 34,12.5 C34,11.1148382 35.1148382,10 36.5,10 C37.8851618,10 39,11.1148382 39,12.5 C39,13.8682048 37.8682821,15 36.5,15 Z M36.5,11.351464 C35.8581357,11.351464 35.3513868,11.8581974 35.3513868,12.5000772 C35.3513868,13.1250618 35.8750154,13.6486904 36.5,13.6486904 C37.1249846,13.6486904 37.6486132,13.141957 37.6486132,12.5000772 C37.6486132,11.8581974 37.1249846,11.351464 36.5,11.351464 Z" id="Shape" fill-rule="nonzero"></path>
                <path d="M67.5083154,13 C63.9203197,13 61,10.0963112 61,6.50831543 C61,2.92031971 63.9204723,0 67.5083154,0 C71.0961586,0 74,2.92047228 74,6.50831543 C74,10.0961586 71.0795277,13 67.5083154,13 Z M67.5083154,1.35167776 C64.6546718,1.35167776 62.3350469,3.67130265 62.3350469,6.5249463 C62.3350469,9.36195909 64.6546718,11.681584 67.5083154,11.681584 C70.3619591,11.681584 72.6649531,9.36195909 72.6649531,6.5249463 C72.6649531,3.65467178 70.3453282,1.35167776 67.5083154,1.35167776 Z" id="Shape" fill-rule="nonzero"></path>
                <path d="M68,13 C66.0640828,13 64.299746,12.0473348 63.128803,10.4094486 C62.9570657,10.1754692 62.9570657,9.84118681 63.128803,9.60720744 C64.2841582,7.9526041 66.0639401,7 68,7 C69.9203579,7 71.700254,7.95266522 72.871197,9.60720744 C73.0429343,9.84118681 73.0429343,10.1754692 72.871197,10.4094486 C71.7002397,12.0473959 69.9203579,13 68,13 Z M64.4402078,10.008328 C65.3457579,11.0779829 66.6259299,11.6629314 68,11.6629314 C69.3740701,11.6629314 70.6385115,11.0612505 71.5597922,10.008328 C70.63864,8.93867312 69.3740701,8.33691583 68,8.33691583 C66.6259299,8.33691583 65.3614885,8.93859671 64.4402078,10.008328 Z" id="Shape" fill-rule="nonzero"></path>
                <path d="M67.5,7 C66.1148999,7 65,5.88516185 65,4.5 C65,3.11483815 66.1148382,2 67.5,2 C68.8851618,2 70,3.13171794 70,4.5 C70,5.88510007 68.8682821,7 67.5,7 Z M67.5,3.35146405 C66.8581357,3.35146405 66.3513868,3.87509266 66.3513868,4.50007722 C66.3513868,5.12506177 66.8750154,5.64869039 67.5,5.64869039 C68.1249846,5.64869039 68.6486132,5.12506177 68.6486132,4.50007722 C68.6486132,3.85821287 68.1249846,3.35146405 67.5,3.35146405 Z" id="Shape" fill-rule="nonzero"></path>
                <path d="M74,37 C70.6837615,37 68,34.0832591 68,30.5 C68,26.9167409 70.6992737,24 74,24 C77.3162385,24 80,26.9167409 80,30.5 C80,34.0832591 77.3162385,37 74,37 Z M74,25.3499508 C71.3624932,25.3499508 69.2339295,27.666612 69.2339295,30.5166096 C69.2339295,33.3666073 71.3778645,35.6832685 74,35.6832685 C76.6375068,35.6832685 78.7660705,33.3666073 78.7660705,30.5166096 C78.7814953,27.666612 76.6375068,25.3499508 74,25.3499508 Z" id="Shape" fill-rule="nonzero"></path>
                <path d="M73.3166324,32.4141761 C73.5333029,32.3661224 73.6832914,32.2700119 73.8166248,32.1258418 C73.9499581,31.9816718 74.0166248,31.8054786 74.0166248,31.6132606 C74.0166248,31.4370644 73.9666255,31.2928973 73.8499505,31.164752 C73.7332754,31.0366067 73.5666133,30.940505 73.3166171,30.8764177 L73.3166324,32.4141761 Z M72.7333059,28.233417 C72.5666286,28.2814707 72.4499657,28.3775812 72.3499733,28.5057294 C72.249981,28.6338776 72.21664,28.7780419 72.21664,28.922209 C72.21664,29.0663761 72.2499733,29.1945214 72.3333059,29.3066449 C72.41664,29.4347902 72.5499764,29.5148847 72.7333059,29.5949792 L72.7333059,28.233417 Z M72.7333029,32.3500302 L72.7333029,30.7162141 C72.1999695,30.5720499 71.81664,30.3478 71.5666438,30.0434439 C71.3166476,29.7551096 71.1999848,29.3866955 71.1999848,28.9702305 C71.1999848,28.5377438 71.3499855,28.1853368 71.6166552,27.8970172 C71.8999924,27.6086829 72.2666514,27.4485086 72.7333181,27.3844359 L72.7333181,27 L73.3333181,27 L73.3333181,27.3844359 C73.766659,27.4324897 74.1166476,27.5766539 74.3666438,27.8169227 C74.61664,28.0411697 74.7833143,28.3615476 74.849981,28.7619907 L73.8166552,28.8901361 C73.7499886,28.5857946 73.5833295,28.361533 73.3166629,28.2654313 L73.3166629,29.7872118 C73.9833295,29.963408 74.4166705,30.1876696 74.6499962,30.4439602 C74.8833219,30.7162727 75,31.0526431 75,31.4851446 C75,31.949675 74.8499992,32.3501181 74.5500038,32.670496 C74.2500084,32.990874 73.833341,33.1990991 73.3000076,33.2791789 L73.3000076,34 L72.7000076,34 L72.7000076,33.2791789 C72.233341,33.2311252 71.8500114,33.054932 71.5666743,32.7665977 C71.2666667,32.4942852 71.0833371,32.0938275 71,31.5812462 L72.0666667,31.4691198 C72.1,31.6773596 72.2,31.8535557 72.3166629,32.0137447 C72.4499962,32.1579089 72.5833295,32.2700353 72.7333333,32.3501298 L72.7333029,32.3500302 Z" id="Shape" fill-rule="nonzero"></path>
                <path d="M9.49168457,67 C5.90368884,67 3,64.0795277 3,60.4916846 C3,56.9204723 5.92047228,54 9.49168457,54 C13.0796803,54 16,56.9204723 16,60.4916846 C15.9833112,64.0963112 13.0795277,67 9.49168457,67 Z M9.49168457,55.3516778 C6.63804091,55.3516778 4.33504689,57.6713027 4.33504689,60.5083154 C4.33504689,63.3619591 6.65467178,65.681584 9.49168457,65.681584 C12.3453282,65.681584 14.6649531,63.3619591 14.6649531,60.5083154 C14.6482643,57.6713027 12.3286973,55.3516778 9.49168457,55.3516778 Z" id="Shape" fill-rule="nonzero"></path>
                <path d="M10.3333029,63.3859597 C10.5333029,63.3380153 10.6999619,63.2421235 10.8332952,63.0982814 C10.9666286,62.9544394 11.0166248,62.7786471 11.0166248,62.5868664 C11.0166248,62.4110712 10.9666255,62.2512467 10.8499505,62.1393783 C10.7499505,62.0115246 10.5666133,61.9156416 10.3166171,61.8517001 L10.3333029,63.3859597 Z M9.73330286,59.2147129 C9.56662857,59.2786398 9.44996571,59.3585491 9.34997333,59.4864058 C9.24997333,59.5982771 9.21664,59.7580986 9.21664,59.9019377 C9.21664,60.0457769 9.24997333,60.1736306 9.34997333,60.285499 C9.43330743,60.3973703 9.56664381,60.493265 9.73330286,60.5731772 L9.73330286,59.2147129 Z M9.73330286,63.3219597 L9.73330286,61.6757879 C9.19996952,61.5319517 8.81664,61.3082121 8.56664381,61.0205338 C8.31664762,60.7168848 8.19998476,60.3652797 8.19998476,59.9497623 C8.19998476,59.5182596 8.3333181,59.1666545 8.61665524,58.8789909 C8.89999238,58.5913272 9.26665143,58.4155174 9.7333181,58.3835612 L9.7333181,58 L10.3333181,58 L10.3333181,58.3835612 C10.766659,58.4315057 11.1166476,58.5753419 11.3666438,58.7990932 C11.6333105,59.0388154 11.7833143,59.3584497 11.849981,59.742011 L10.8166552,59.8698647 C10.7499886,59.5662157 10.5833295,59.3584497 10.3166629,59.2465813 L10.3166629,60.7808263 C10.9833295,60.9566216 11.4166705,61.1643876 11.6499962,61.4360804 C11.8833219,61.7077733 12,62.0433784 12,62.4748958 C12,62.9383693 11.8499992,63.3538866 11.5500038,63.673521 C11.2500084,63.9931554 10.833341,64.2009214 10.3000076,64.2648483 L10.3000076,65 L9.70000762,65 L9.70000762,64.280819 C9.23334095,64.2168921 8.85001143,64.0570823 8.56667429,63.769404 C8.26666667,63.4817258 8.08333714,63.0981645 8,62.5867496 L9.06666667,62.4588958 C9.1,62.6666618 9.2,62.8584424 9.29999238,63.0022815 C9.46666667,63.1461177 9.6,63.257989 9.73333333,63.3219159 L9.73330286,63.3219597 Z" id="Shape" fill-rule="nonzero"></path>
                <path d="M76.3406539,72 L8.65934606,72 C8.29671326,72 8,71.6654204 8,71.2565087 L8,67.7434913 C8,67.3345796 8.29671326,67 8.65934606,67 L76.3406539,67 C76.7032867,67 77,67.3345796 77,67.7434913 L77,71.2565087 C77,71.6654204 76.7032867,72 76.3406539,72 Z M9.31793858,70.5130175 L75.6805543,70.5130175 L75.6805543,68.4869825 L9.31793858,68.4869825 L9.31793858,70.5130175 Z" id="Shape" fill-rule="nonzero"></path>
                <path d="M56.3478261,20 L48.6521739,20 C48.2934857,20 48,19.7749943 48,19.5 C48,19.2250057 48.2934857,19 48.6521739,19 L56.3478261,19 C56.7065143,19 57,19.2250057 57,19.5 C57,19.7749943 56.7065143,20 56.3478261,20 Z" id="Path"></path>
                <path d="M56.3478261,23 L48.6521739,23 C48.2934857,23 48,22.7749943 48,22.5 C48,22.2250057 48.2934857,22 48.6521739,22 L56.3478261,22 C56.7065143,22 57,22.2250057 57,22.5 C57,22.7749943 56.7065143,23 56.3478261,23 Z" id="Path"></path>
                <path d="M56.3478261,25 L48.6521739,25 C48.2934857,25 48,24.7749943 48,24.5 C48,24.2250057 48.2934857,24 48.6521739,24 L56.3478261,24 C56.7065143,24 57,24.2250057 57,24.5 C57,24.7749943 56.7065143,25 56.3478261,25 Z" id="Path"></path>
                <path d="M8.34782609,38 L0.652173913,38 C0.293485714,38 0,37.7749943 0,37.5 C0,37.2250057 0.293485714,37 0.652173913,37 L8.34782609,37 C8.70651429,37 9,37.2250057 9,37.5 C9,37.7749943 8.70651429,38 8.34782609,38 Z" id="Path"></path>
                <path d="M8.34782609,40 L0.652173913,40 C0.293485714,40 0,39.7749943 0,39.5 C0,39.2250057 0.293485714,39 0.652173913,39 L8.34782609,39 C8.70651429,39 9,39.2250057 9,39.5 C9,39.7749943 8.70651429,40 8.34782609,40 Z" id="Path"></path>
                <path d="M8.34782609,43 L0.652173913,43 C0.293485714,43 0,42.7749943 0,42.5 C0,42.2250057 0.293485714,42 0.652173913,42 L8.34782609,42 C8.70651429,42 9,42.2250057 9,42.5 C9,42.7749943 8.70651429,43 8.34782609,43 Z" id="Path"></path>
            </g>
        </g>
    </g>
</svg>